<svg width="456" height="456" viewBox="0 0 456 456" fill="none" xmlns="http://www.w3.org/2000/svg">
<rect x="36.0703" y="107.766" width="12.4688" height="312.609" rx="6.23438" fill="white"/>
<rect x="184.359" y="107.766" width="12.9141" height="312.609" rx="6.45703" fill="white"/>
<rect x="105.984" y="107.766" width="12.9141" height="312.609" rx="6.45703" fill="white"/>
<rect x="241.805" y="107.766" width="26.7188" height="312.609" rx="13.3594" fill="white"/>
<rect x="212.859" y="107.766" width="12.9141" height="312.609" rx="6.45703" fill="white"/>
<rect x="134.484" y="107.766" width="33.8438" height="312.609" rx="16.9219" fill="white"/>
<rect x="284.109" y="107.766" width="33.8438" height="312.609" rx="16.9219" fill="white"/>
<rect x="65.0156" y="107.766" width="24.0469" height="312.609" rx="12.0234" fill="white"/>
<rect x="334.43" y="107.766" width="12.4688" height="312.609" rx="6.23438" fill="white"/>
<rect x="404.344" y="107.766" width="12.9141" height="312.609" rx="6.45703" fill="white"/>
<rect x="363.375" y="107.766" width="24.0469" height="312.609" rx="12.0234" fill="white"/>
<rect x="17.3672" y="257.391" width="419.93" height="10.6875" fill="#FF5E71"/>
<path d="M173.449 82.2085C172.246 82.2085 171.222 81.8076 170.38 81.0053C169.537 80.1824 169.116 79.2054 169.116 78.0742C169.116 76.922 169.537 75.9349 170.38 75.1121C171.222 74.2893 172.246 73.8778 173.449 73.8778C174.673 73.8778 175.706 74.2893 176.549 75.1121C177.412 75.9349 177.843 76.922 177.843 78.0742C177.843 79.2054 177.412 80.1824 176.549 81.0053C175.706 81.8076 174.673 82.2085 173.449 82.2085Z" fill="white"/>
<path d="M221.57 81.5298H213.746L193.132 49.0086C192.61 48.1858 192.179 47.3319 191.838 46.4475H191.657C191.818 47.3939 191.898 49.42 191.898 52.5258V81.5298H184.976V37.2835H193.312L213.234 69.0334C214.077 70.3502 214.619 71.2551 214.859 71.7487H214.98C214.779 70.5764 214.679 68.5914 214.679 65.7936V37.2835H221.57V81.5298Z" fill="white"/>
<path d="M255.276 81.5298H231.051V37.2835H254.313V43.5164H238.213V56.0434H253.049V62.2453H238.213V75.3279H255.276V81.5298Z" fill="white"/>
<path d="M289.705 43.5164H277.306V81.5298H270.143V43.5164H257.775V37.2835H289.705V43.5164Z" fill="white"/>
</svg>
